<?xml version="1.0" encoding="utf-8"?>
<!-- Generator: Adobe Illustrator 16.0.0, SVG Export Plug-In . SVG Version: 6.00 Build 0)  -->
<!DOCTYPE svg PUBLIC "-//W3C//DTD SVG 1.1//EN" "http://www.w3.org/Graphics/SVG/1.1/DTD/svg11.dtd">
<svg version="1.1" id="Layer_1" xmlns="http://www.w3.org/2000/svg" xmlns:xlink="http://www.w3.org/1999/xlink" x="0px" y="0px"
	 width="200px" height="200px" viewBox="0 0 200 200" enable-background="new 0 0 200 200" xml:space="preserve">
<radialGradient id="SVGID_1_" cx="100" cy="100" r="86.496" gradientUnits="userSpaceOnUse">
	<stop  offset="0" style="stop-color:#FF784E"/>
	<stop  offset="0.5" style="stop-color:#FF5722"/>
	<stop  offset="1" style="stop-color:#B23C17"/>
</radialGradient>
<circle fill="url(#SVGID_1_)" cx="100" cy="100" r="99.548"/>
<circle fill="none" stroke="#FFFFFF" stroke-width="0.5" stroke-miterlimit="10" cx="100" cy="100" r="96.741"/>
<g>
	<path fill="#FFFFFF" d="M81.289,22.74c-6.587-3.261-11.886-4.892-15.897-4.892c-4.011,0-7.37,1.142-10.076,3.424
		c-2.577,2.185-3.864,4.533-3.864,7.043c0,1.305,0.472,2.25,1.418,2.837c1.271,0.718,2.478,1.076,3.62,1.076
		c0.423,0,0.848-0.049,1.271-0.146c1.5-0.358,2.771-0.961,3.815-1.81c1.043-0.848,1.565-1.532,1.565-2.054
		c0-0.521,0.154-0.88,0.465-1.076c0.31-0.196,0.464-0.13,0.464,0.196c0,0.195-0.049,0.424-0.146,0.685
		c-0.685,2.316-2.283,3.897-4.794,4.745c-1.076,0.359-2.185,0.538-3.326,0.538c-1.142,0-2.267-0.342-3.375-1.027
		c-2.087-1.174-3.13-2.967-3.13-5.38c0-2.902,1.336-5.543,4.011-7.924c2.674-2.38,5.935-3.571,9.783-3.571
		c1.891,0,3.798,0.278,5.723,0.832c4.826,1.305,9.196,3.196,13.109,5.674c1.01-1.108,2.054-1.663,3.13-1.663
		c1.206,0,1.826,0.408,1.859,1.223c0.032,0.359-0.082,0.522-0.342,0.489c-0.164-0.032-0.342-0.163-0.538-0.391
		c-0.261-0.098-0.506-0.147-0.734-0.147c-0.718,0-1.451,0.359-2.201,1.076c2.413,1.207,5.25,2.234,8.511,3.082
		c1.272,0.293,2.282,0.44,3.033,0.44c0.75,0,1.321-0.016,1.712-0.049c1.435-0.163,2.364-0.701,2.788-1.614
		c0.228-0.489,0.432-0.791,0.612-0.905c0.179-0.114,0.285-0.056,0.318,0.171c0,0.098,0,0.229,0,0.392
		c0,1.337-0.685,2.348-2.055,3.033c-0.848,0.424-1.647,0.636-2.396,0.636c-0.75,0-1.565-0.073-2.446-0.22s-2.022-0.448-3.424-0.905
		c-1.402-0.457-2.543-0.88-3.424-1.272c-0.88-0.391-1.745-0.799-2.592-1.223l-1.37-0.685c-1.696,1.925-3.506,5.234-5.43,9.93
		c-0.62,1.565-0.979,2.462-1.076,2.69c1.891,0.261,3.636,0.391,5.234,0.391c1.597,0,2.861-0.024,3.791-0.073
		c0.929-0.049,1.41,0.057,1.443,0.318c0.032,0.718-2.397,1.076-7.288,1.076c-1.565,0-2.821-0.065-3.767-0.196
		c-2.022,5.544-4.044,9.653-6.065,12.327c-0.849,1.109-1.908,2.274-3.18,3.498c-1.271,1.223-2.625,2.208-4.06,2.959
		c-3.229,1.761-6.832,2.642-10.81,2.642c-3.979,0-7.354-0.88-10.125-2.642c-4.207-2.609-6.31-6.375-6.31-11.299
		c0-1.663,0.277-3.44,0.832-5.332c0.391-1.239,1.117-2.331,2.177-3.277c1.059-0.945,1.948-1.524,2.666-1.736
		c0.717-0.212,1.051-0.252,1.002-0.122c-0.049,0.13-0.611,0.571-1.688,1.32c-2.12,1.533-3.375,3.424-3.767,5.674
		c-0.164,0.815-0.244,1.761-0.244,2.837s0.244,2.25,0.733,3.522c1.337,3.457,4.109,6,8.315,7.631
		c1.989,0.75,4.125,1.125,6.408,1.125c2.282,0,4.549-0.457,6.799-1.37c2.25-0.914,4.337-2.283,6.261-4.109
		c3.75-3.554,6.848-8.152,9.294-13.794l-3.131-0.049c-3.815,0-6.327,0.88-7.533,2.641c-0.293,0.359-0.53,0.449-0.709,0.269
		c-0.179-0.179-0.204-0.416-0.073-0.709c0.717-1.565,1.728-2.69,3.033-3.375c1.304-0.685,2.6-1.027,3.889-1.027
		c1.288,0,3.024,0.146,5.209,0.44c1.01-2.478,2.291-5.054,3.84-7.729C79.584,25.153,80.668,23.458,81.289,22.74z"/>
	<path fill="#FFFFFF" d="M98.653,43.308c-1.076,2.071-1.72,3.62-1.932,4.647c-0.212,1.027-0.318,1.859-0.318,2.495
		c0,0.636,0.245,0.954,0.733,0.954c0.619,0,1.386-0.57,2.299-1.712c1.336-1.663,2.657-3.832,3.962-6.506
		c0.13-0.293,0.276-0.456,0.44-0.489c0.261-0.098,0.392,0,0.392,0.293c0,0.164-0.05,0.359-0.147,0.587
		c-3,6.065-5.527,9.098-7.582,9.098c-0.946,0-1.712-0.456-2.299-1.37c-0.293-0.489-0.44-1.141-0.44-1.957
		c0-0.814,0.163-1.81,0.489-2.984c-2.609,4.207-4.859,6.31-6.75,6.31c-0.522,0-0.995-0.163-1.419-0.489
		c-0.978-0.685-1.467-1.859-1.467-3.522c0-3.196,1.386-6.44,4.158-9.734c1.565-1.826,3.489-3.016,5.772-3.571
		c0.619-0.163,1.206-0.245,1.761-0.245c1.5,0,2.771,0.522,3.815,1.565c0.326,0.359,0.423,0.702,0.293,1.027
		c-0.13,0.327-0.408,0.457-0.832,0.392c-0.359-1.174-1.142-1.761-2.348-1.761c-1.402,0-3.131,1.109-5.185,3.326
		c-1.174,1.305-2.267,2.837-3.277,4.598c-1.271,2.12-1.908,3.815-1.908,5.087c0,1.272,0.408,1.908,1.223,1.908
		c1.957,0,4.516-3,7.679-9c0.619-1.206,1.141-2.03,1.565-2.47c0.423-0.44,0.961-0.661,1.614-0.661c0.13,0,0.465,0.049,1.003,0.147
		c0.538,0.098,0.937,0.115,1.198,0.049C100.561,39.909,99.729,41.238,98.653,43.308z"/>
	<path fill="#FFFFFF" d="M126.533,36.534c-3.979,7.077-5.967,11.642-5.967,13.696c0,0.914,0.309,1.37,0.93,1.37
		c0.781,0,1.678-0.587,2.689-1.761c1.533-1.859,2.869-4.092,4.012-6.701c0.195-0.457,0.391-0.636,0.586-0.538
		s0.295,0.229,0.295,0.391c0,0.164-0.164,0.571-0.49,1.223c-0.326,0.652-0.586,1.174-0.783,1.565
		c-0.195,0.392-0.627,1.142-1.295,2.25c-0.67,1.109-1.24,1.924-1.713,2.445c-0.473,0.522-1.076,1.036-1.809,1.541
		c-0.734,0.506-1.566,0.758-2.496,0.758s-1.721-0.457-2.371-1.37c-0.295-0.423-0.441-1.003-0.441-1.737
		c0-0.733,0.164-1.622,0.49-2.666c0.324-1.043,1.223-2.739,2.689-5.087c0.359-0.587,0.539-1.051,0.539-1.394
		c0-0.342-0.27-0.514-0.809-0.514c-0.537,0-1.508,0.653-2.91,1.957s-2.877,3.065-4.426,5.283c-1.549,2.218-2.471,3.995-2.764,5.332
		c-0.555,0-0.963-0.228-1.223-0.685c-0.262-0.457-0.393-0.848-0.393-1.174c0-1.336,0.896-3.88,2.691-7.63
		c0.586-1.239,0.896-2.079,0.93-2.519c0.031-0.44-0.025-0.668-0.172-0.685c-0.146-0.016-0.352,0.042-0.611,0.171
		c-0.588,0.293-1.484,1.011-2.691,2.152c-2.281,2.087-4.533,5.267-6.75,9.539c-0.162,0.359-0.367,0.579-0.611,0.66
		c-0.244,0.082-0.726,0.139-1.442,0.171c-0.717,0.032-1.19,0.114-1.419,0.245c0.587-1.141,1.614-3.277,3.082-6.408
		c2.641-5.608,4.402-8.837,5.283-9.685c0.391-0.392,0.93-0.587,1.613-0.587c0.131,0,0.465,0.049,1.004,0.147
		c0.537,0.098,0.936,0.115,1.197,0.049c-1.207,0.653-3.18,3.718-5.918,9.196c1.531-1.891,2.633-3.13,3.301-3.717
		s1.166-1.027,1.492-1.321s0.578-0.521,0.758-0.685c0.18-0.163,0.441-0.399,0.783-0.709c0.342-0.31,0.604-0.538,0.783-0.685
		c0.178-0.147,0.432-0.35,0.758-0.612c0.326-0.26,0.578-0.432,0.758-0.513c0.18-0.081,0.424-0.22,0.734-0.416
		c0.309-0.196,0.537-0.293,0.684-0.293c0.148,0,0.352-0.041,0.611-0.122c0.262-0.081,0.441-0.057,0.539,0.073
		c0.652,0.261,0.979,0.668,0.979,1.223c0,0.489-0.555,1.745-1.664,3.767c-1.107,2.022-1.826,3.359-2.152,4.011
		c1.436-1.793,2.805-3.269,4.109-4.427c1.305-1.157,2.846-2.226,4.623-3.204c1.777-0.979,3.072-1.467,3.889-1.467
		C126.24,36.436,126.402,36.469,126.533,36.534z"/>
	<path fill="#FFFFFF" d="M130.104,51.501c0.618,0,1.271-0.31,1.956-0.929c1.206-1.206,2.739-3.669,4.598-7.386
		c0.229-0.489,0.457-0.636,0.686-0.44c0.064,0.066,0.098,0.171,0.098,0.318c0,0.146-0.131,0.506-0.392,1.076
		c-0.262,0.571-0.497,1.085-0.709,1.541c-0.213,0.457-0.62,1.198-1.223,2.226c-0.604,1.027-1.149,1.818-1.639,2.373
		c-1.338,1.533-2.602,2.299-3.791,2.299c-1.191,0-2.047-0.358-2.568-1.076c-0.521-0.717-0.782-1.516-0.782-2.397
		c0-0.88,0.211-1.842,0.636-2.886l3.131-7.973c0.064-0.196,0.098-0.456,0.098-0.783c0-0.326-0.196-0.75-0.587-1.271l2.689-0.049
		c0.75,0,1.19,0.139,1.321,0.416c0.13,0.277,0.032,0.709-0.294,1.296l-3.913,9.147c-0.555,1.207-0.831,2.234-0.831,3.082
		C128.588,51.029,129.093,51.501,130.104,51.501z M134.897,33.55c-0.457,0.391-0.962,0.587-1.517,0.587s-0.995-0.196-1.32-0.587
		c-0.326-0.391-0.457-0.864-0.392-1.418c0.099-0.554,0.375-1.027,0.832-1.418c0.456-0.392,0.961-0.587,1.517-0.587
		c0.554,0,1.002,0.195,1.345,0.587c0.343,0.391,0.465,0.864,0.367,1.418C135.632,32.686,135.354,33.159,134.897,33.55z"/>
	<path fill="#FFFFFF" d="M138.957,44.482c-0.262,0.767-0.481,1.5-0.66,2.201c-0.18,0.702-0.27,1.402-0.27,2.103
		c0,0.702,0.163,1.354,0.489,1.957c0.326,0.604,0.848,0.905,1.565,0.905c1.174,0,2.315-0.791,3.424-2.373
		c1.108-1.581,2.282-3.595,3.522-6.041c0.261-0.456,0.505-0.636,0.733-0.538c0.163,0.131,0.195,0.302,0.098,0.514
		c-0.098,0.212-0.302,0.669-0.611,1.37c-0.311,0.702-0.538,1.191-0.685,1.467c-0.146,0.278-0.408,0.767-0.783,1.468
		c-0.375,0.702-0.701,1.223-0.978,1.565c-0.277,0.343-0.653,0.783-1.125,1.321c-0.474,0.538-0.922,0.938-1.346,1.198
		c-1.142,0.718-2.218,1.076-3.229,1.076s-1.793-0.22-2.348-0.66s-0.889-0.913-1.003-1.418c-0.114-0.505-0.171-0.954-0.171-1.345
		s0.016-0.896,0.049-1.517c0.098-1.043,0.301-2.054,0.611-3.033c0.31-0.978,0.48-1.532,0.514-1.663
		c0.75-2.706,1.817-5.657,3.204-8.854c1.386-3.195,2.56-5.601,3.521-7.215s1.72-2.715,2.274-3.302
		c1.108-1.174,2.201-1.761,3.277-1.761c0.75,0,1.255,0.538,1.517,1.614c0.032,0.195,0.049,0.44,0.049,0.733
		c0,1.109-0.391,2.512-1.174,4.207c-2.805,6.229-6.147,11.12-10.027,14.674C139.364,43.268,139.218,43.716,138.957,44.482z
		 M144.729,35.164c1.63-2.576,2.828-4.769,3.595-6.579c0.766-1.81,1.149-3.041,1.149-3.693c0-0.652-0.114-0.979-0.342-0.979
		c-0.327,0-0.946,0.645-1.859,1.932c-0.913,1.289-2.145,3.604-3.693,6.946c-1.549,3.343-2.813,6.27-3.79,8.78
		C141.452,39.876,143.098,37.74,144.729,35.164z"/>
	<path fill="#FFFFFF" d="M140.326,68.035c-1.435,0-2.544-0.302-3.326-0.905c-0.783-0.604-1.174-1.329-1.174-2.177
		c0-0.849,0.244-1.81,0.733-2.886c0.849-1.663,2.381-3,4.598-4.011c1.663-0.783,3.864-1.509,6.604-2.177
		c2.739-0.669,4.5-1.117,5.283-1.345c1.174-2.054,2.575-5.723,4.206-11.006c-1.892,3.326-3.473,5.658-4.744,6.995
		c-1.271,1.337-2.561,2.005-3.864,2.005c-1.761,0-2.788-0.734-3.082-2.201c-0.131-0.228-0.163-0.57-0.098-1.027
		c0.065-0.456,0.105-0.783,0.122-0.978c0.017-0.196,0.123-0.514,0.318-0.954c0.195-0.44,0.325-0.758,0.392-0.954
		c0.358-0.75,0.668-1.337,0.929-1.761c-0.521,0-0.668-0.26-0.439-0.783l0.88-1.712c1.108-2.119,2.021-3.913,2.739-5.38
		c0.325-0.685,0.962-1.027,1.908-1.027h2.983c-0.065,0.066-0.229,0.196-0.489,0.391c-0.587,0.392-1.027,0.849-1.32,1.37
		c-1.174,2.022-2.642,4.909-4.402,8.658c-0.718,1.533-1.076,2.658-1.076,3.375c0,0.718,0.122,1.223,0.366,1.517
		c0.245,0.293,0.579,0.44,1.003,0.44c0.619,0,1.483-0.652,2.593-1.957c2.315-2.707,4.875-6.962,7.68-12.767
		c0.358-0.685,0.994-1.027,1.907-1.027h2.642c-0.849,0.587-1.517,1.329-2.006,2.226c-0.488,0.897-1.02,2.112-1.589,3.644
		c-0.571,1.533-1.289,3.571-2.152,6.114c-0.865,2.544-1.525,4.452-1.981,5.723c3.064-0.913,5.413-2.527,7.044-4.842
		c0.717-1.011,1.744-2.804,3.081-5.381c0.229-0.456,0.433-0.636,0.612-0.538c0.179,0.098,0.269,0.229,0.269,0.392
		c0,0.164-0.269,0.791-0.807,1.883c-0.538,1.093-1.085,2.104-1.639,3.033c-0.556,0.93-1.272,1.883-2.152,2.862
		c-0.881,0.978-1.859,1.752-2.936,2.323c-1.076,0.57-2.511,1.182-4.304,1.834c-2.512,4.565-5.039,7.924-7.582,10.076
		C145.674,67.056,143.098,68.035,140.326,68.035z M137.489,63.192c-0.358,0.717-0.538,1.377-0.538,1.981
		c0,0.603,0.229,1.067,0.685,1.394c0.457,0.325,1.027,0.489,1.712,0.489c1.892,0,3.913-0.97,6.065-2.91
		c2.152-1.94,4.043-4.02,5.674-6.237l1.076-1.81c-5.38,1.401-8.771,2.413-10.174,3.033
		C139.902,60.045,138.402,61.398,137.489,63.192z"/>
	<path fill="#FFFFFF" d="M84.419,171.538c-1.467,1.598-3.155,2.397-5.063,2.397s-3.742-0.922-5.503-2.764
		c-1.761-1.843-3.229-4.476-4.402-7.9c-1.174-3.424-1.99-6.488-2.446-9.195c-1.044,2.087-1.859,3.677-2.446,4.769
		c-0.587,1.093-1.451,2.487-2.592,4.183c-1.142,1.696-2.332,3.229-3.571,4.598c-3.848,4.142-8.202,6.212-13.061,6.212
		c-4.402,0-7.141-1.19-8.217-3.57c-0.262-0.554-0.392-1.198-0.392-1.933c0-0.733,0.375-1.523,1.125-2.372
		c1.206-1.337,2.869-2.005,4.989-2.005c1.435,0,2.951,0.277,4.549,0.831c0.423,0.164,0.587,0.343,0.489,0.538
		c-0.098,0.195-0.522,0.146-1.272-0.146c-0.75-0.294-1.655-0.44-2.715-0.44c-1.06,0-1.973,0.408-2.739,1.223
		c-0.767,0.815-1.149,1.663-1.149,2.544c0,0.392,0.081,0.815,0.245,1.271c0.652,1.696,2.184,2.544,4.598,2.544
		c2.673,0,5.038-0.799,7.092-2.397c1.174-0.912,2.233-1.842,3.18-2.788c0.945-0.945,1.957-2.217,3.033-3.815
		c1.695-2.445,3.138-4.72,4.329-6.823s2.478-4.402,3.864-6.896c1.386-2.495,2.405-4.313,3.058-5.454
		c2.086-3.555,3.994-6.277,5.723-8.169c-1.827-0.163-3.652-0.245-5.479-0.245c-4.174,0-8.324,0.433-12.449,1.297
		c-4.125,0.864-7.395,2.291-9.807,4.28c-3.033,2.511-4.549,5.185-4.549,8.021c0,1.37,0.489,2.585,1.468,3.645
		c0.978,1.06,2.299,1.59,3.962,1.59c2.021,0,3.701-0.718,5.038-2.152c1.337-1.435,2.038-2.576,2.104-3.425
		c0.032-0.423,0.13-0.636,0.293-0.636c0.261,0,0.375,0.245,0.342,0.734c-0.229,1.564-0.864,2.886-1.908,3.962
		c-1.827,1.892-4.011,2.837-6.554,2.837c-1.925,0-3.595-0.652-5.014-1.957c-1.418-1.304-2.127-3.049-2.127-5.233
		c0-3.229,1.573-6.122,4.72-8.683c3.146-2.56,7.28-4.214,12.4-4.965c3.652-0.521,7.019-0.782,10.101-0.782s5.926,0.18,8.536,0.538
		c0.848-0.913,1.435-1.37,1.761-1.37c0.195,0,0.293,0.155,0.293,0.465c0,0.311-0.082,0.693-0.245,1.149
		c2.413,0.392,4.027,0.702,4.842,0.93c4.892,1.436,7.337,3.652,7.337,6.652c0,1.925-1.191,3.832-3.571,5.723
		c-3,2.316-7.012,3.882-12.033,4.696c-1.435,0.229-2.935,0.375-4.5,0.44c1.043,5.771,2.853,10.631,5.43,14.576
		c0.88,1.338,1.688,2.308,2.421,2.91c0.734,0.604,1.524,0.905,2.373,0.905c1.174,0,2.421-0.652,3.742-1.957
		c1.32-1.304,2.845-3.685,4.573-7.142c0.261-0.488,0.521-0.733,0.783-0.733c0.261,0,0.277,0.245,0.049,0.733
		C87.565,167.022,85.886,169.941,84.419,171.538z M86.669,141.896c0-0.261-0.033-0.521-0.098-0.783
		c-0.359-1.826-1.81-3.13-4.354-3.913c-0.783-0.228-2.381-0.538-4.793-0.93c-0.587,1.012-2.022,3.376-4.305,7.093
		c-2.283,3.718-3.979,6.67-5.087,8.854c0.717-0.13,1.769-0.252,3.155-0.366c1.386-0.114,2.388-0.204,3.008-0.27
		c3.717-0.456,6.88-1.907,9.489-4.354C85.674,145.402,86.669,143.625,86.669,141.896z"/>
	<path fill="#FFFFFF" d="M90.875,164.396c-0.457,1.109-0.685,2.349-0.685,3.718c0,0.913,0.204,1.639,0.612,2.177
		c0.407,0.538,0.986,0.807,1.736,0.807c2.967,0,5.657-2.788,8.071-8.364c0.228-0.521,0.505-0.749,0.832-0.685
		c0.13,0.033,0.196,0.115,0.196,0.245s-0.367,0.986-1.101,2.567c-0.734,1.582-1.476,2.861-2.226,3.84
		c-1.663,2.283-3.718,3.424-6.163,3.424c-1.305,0-2.414-0.423-3.327-1.271c-0.913-0.848-1.37-2.006-1.37-3.473
		c0-1.468,0.35-3.024,1.052-4.672c0.701-1.646,1.655-3.179,2.862-4.598c1.206-1.419,2.592-2.453,4.158-3.106
		c0.75-0.325,1.467-0.489,2.152-0.489c0.685,0,1.32,0.196,1.907,0.588c0.554,0.457,0.832,0.962,0.832,1.516
		c0,1.957-1.174,3.832-3.521,5.625c-0.718,0.556-1.729,1.052-3.033,1.492C92.554,164.177,91.56,164.396,90.875,164.396z
		 M99.093,156.57c0-0.651-0.262-0.979-0.783-0.979c-0.914,0-2.299,1.125-4.158,3.376c-1.109,1.369-2.087,2.902-2.935,4.598
		c0.554,0,1.361-0.196,2.421-0.587c1.059-0.392,1.981-0.913,2.764-1.565C98.195,159.881,99.093,158.267,99.093,156.57z"/>
	<path fill="#FFFFFF" d="M109.755,160.68c1.142-1.37,1.712-2.527,1.712-3.474c0-0.945-0.391-1.418-1.174-1.418
		c-1.533,0-3.277,1.402-5.233,4.206c-0.62,0.881-1.223,2.039-1.81,3.474s-0.881,2.731-0.881,3.889s0.236,2.096,0.709,2.813
		c0.473,0.718,1.206,1.076,2.201,1.076c0.994,0,1.916-0.236,2.764-0.71c0.848-0.472,1.655-1.223,2.422-2.25
		c0.766-1.026,1.345-1.883,1.736-2.567c0.391-0.685,0.929-1.712,1.614-3.082c0.228-0.456,0.423-0.644,0.587-0.563
		c0.162,0.082,0.244,0.196,0.244,0.343s-0.22,0.685-0.66,1.614c-0.44,0.929-0.881,1.802-1.32,2.616
		c-0.44,0.816-1.069,1.729-1.884,2.739c-1.467,1.827-3.473,2.739-6.017,2.739c-1.826,0-3.139-0.447-3.938-1.345
		c-0.799-0.896-1.198-1.933-1.198-3.106c0-1.435,0.35-3,1.052-4.695c0.701-1.695,1.508-3.163,2.421-4.402
		c1.892-2.576,4.076-3.864,6.555-3.864c1.206,0,2.079,0.286,2.617,0.855c0.538,0.571,0.807,1.231,0.807,1.981
		c0,1.109-0.457,2.055-1.369,2.837c-0.457,0.424-0.84,0.636-1.149,0.636C110.252,161.021,109.983,160.908,109.755,160.68z"/>
	<path fill="#FFFFFF" d="M115.381,170.854c0.618,0,1.271-0.31,1.956-0.93c1.206-1.206,2.739-3.668,4.598-7.386
		c0.229-0.489,0.457-0.636,0.686-0.44c0.064,0.066,0.098,0.172,0.098,0.318s-0.131,0.506-0.392,1.076
		c-0.262,0.57-0.497,1.084-0.709,1.541c-0.213,0.457-0.62,1.198-1.223,2.226c-0.604,1.026-1.149,1.817-1.639,2.372
		c-1.338,1.533-2.602,2.299-3.791,2.299c-1.191,0-2.047-0.358-2.568-1.076c-0.521-0.717-0.782-1.517-0.782-2.396
		c0-0.881,0.211-1.842,0.636-2.887l3.131-7.973c0.064-0.195,0.098-0.456,0.098-0.782s-0.196-0.75-0.587-1.272l2.689-0.049
		c0.75,0,1.19,0.14,1.321,0.416c0.13,0.277,0.032,0.709-0.294,1.296l-3.913,9.147c-0.555,1.207-0.831,2.234-0.831,3.081
		C113.864,170.381,114.369,170.854,115.381,170.854z M120.174,152.902c-0.457,0.391-0.962,0.587-1.517,0.587
		s-0.995-0.196-1.32-0.587c-0.326-0.392-0.457-0.864-0.392-1.419c0.099-0.554,0.375-1.027,0.832-1.419
		c0.456-0.391,0.961-0.587,1.517-0.587c0.554,0,1.002,0.196,1.345,0.587c0.343,0.392,0.465,0.865,0.367,1.419
		C120.908,152.038,120.63,152.511,120.174,152.902z"/>
	<path fill="#FFFFFF" d="M136.658,158.625c0,1.436-0.376,3.017-1.125,4.744c-0.751,1.729-1.786,3.393-3.106,4.99
		s-2.928,2.689-4.818,3.276c-0.718,0.196-1.541,0.294-2.47,0.294c-0.93,0-1.949-0.294-3.058-0.881l-4.646,11.593
		c-0.489,1.044-0.945,1.729-1.37,2.055c-0.423,0.326-0.831,0.489-1.223,0.489s-0.627,0-0.709,0c-0.081,0-0.375-0.049-0.881-0.146
		c-0.505-0.098-0.888-0.131-1.149-0.098c0.718-0.686,2.536-3.938,5.454-9.759c2.918-5.821,4.573-9.742,4.965-11.764
		c-0.359,0.521-0.701,0.799-1.027,0.831c-0.195,0-0.195-0.188,0-0.563c0.196-0.374,0.521-1.101,0.979-2.177
		c0.587-1.401,0.881-2.698,0.881-3.889c0-1.189-0.229-1.883-0.686-2.079c1.957-0.325,3.098-0.48,3.424-0.465
		c0.326,0.018,0.53,0.155,0.612,0.416c0.081,0.262,0.122,0.555,0.122,0.881c0,1.989-0.457,4.206-1.37,6.652l0.979-1.565
		c1.174-1.891,2.03-3.113,2.568-3.669c0.538-0.554,1.116-1.125,1.736-1.712c0.945-0.912,1.858-1.369,2.739-1.369
		c0.261,0,0.505,0.032,0.733,0.098C135.843,155.233,136.658,156.506,136.658,158.625z M134.31,158.136
		c0-0.521-0.105-1.003-0.317-1.443c-0.213-0.439-0.547-0.66-1.003-0.66c-1.142,0-2.47,1.061-3.986,3.18
		c-1.517,2.12-3.693,5.821-6.53,11.104c0.424,0.424,1.011,0.636,1.761,0.636s1.81-0.57,3.18-1.712
		c2.185-1.826,4.011-4.092,5.479-6.799C133.837,160.68,134.31,159.245,134.31,158.136z"/>
	<path fill="#FFFFFF" d="M140.571,164.396c-0.457,1.109-0.685,2.349-0.685,3.718c0,0.913,0.203,1.639,0.611,2.177
		c0.407,0.538,0.985,0.807,1.736,0.807c2.967,0,5.657-2.788,8.071-8.364c0.228-0.521,0.505-0.749,0.831-0.685
		c0.13,0.033,0.195,0.115,0.195,0.245s-0.366,0.986-1.101,2.567c-0.733,1.582-1.476,2.861-2.226,3.84
		c-1.663,2.283-3.717,3.424-6.163,3.424c-1.305,0-2.413-0.423-3.326-1.271c-0.913-0.848-1.369-2.006-1.369-3.473
		c0-1.468,0.35-3.024,1.052-4.672c0.7-1.646,1.654-3.179,2.861-4.598c1.206-1.419,2.593-2.453,4.157-3.106
		c0.75-0.325,1.468-0.489,2.152-0.489c0.686,0,1.321,0.196,1.908,0.588c0.554,0.457,0.831,0.962,0.831,1.516
		c0,1.957-1.174,3.832-3.521,5.625c-0.718,0.556-1.729,1.052-3.033,1.492S141.256,164.396,140.571,164.396z M148.789,156.57
		c0-0.651-0.262-0.979-0.783-0.979c-0.913,0-2.299,1.125-4.157,3.376c-1.109,1.369-2.087,2.902-2.935,4.598
		c0.554,0,1.36-0.196,2.421-0.587c1.06-0.392,1.981-0.913,2.764-1.565C147.892,159.881,148.789,158.267,148.789,156.57z"/>
	<path fill="#FFFFFF" d="M154.658,171c0.423,0.066,0.717,0.098,0.88,0.098c1.304,0,2.593-0.766,3.864-2.299
		c0.686-0.848,1.908-2.983,3.669-6.407c0.064-0.163,0.179-0.245,0.343-0.245c0.293-0.032,0.439,0.082,0.439,0.343
		c0,0.065-0.073,0.253-0.22,0.563c-0.146,0.311-0.286,0.62-0.416,0.93c-0.131,0.31-0.342,0.758-0.636,1.345
		s-0.547,1.061-0.758,1.419c-0.213,0.358-0.481,0.799-0.808,1.32c-0.326,0.522-0.652,0.93-0.979,1.223l-1.026,1.076
		c-0.556,0.555-1.207,0.946-1.957,1.174c-1.207,0.392-2.381,0.424-3.521,0.098c-0.751,0.326-1.419,0.489-2.006,0.489
		c-2.315,0-3.718-0.912-4.207-2.739c-0.098-0.423-0.146-0.937-0.146-1.54s0.204-1.182,0.611-1.737
		c0.407-0.554,0.84-0.847,1.297-0.88c1.663-3.163,3.081-6.017,4.255-8.561c1.304-2.771,2.82-4.157,4.55-4.157
		c0.456,0,0.904,0.106,1.345,0.317c0.44,0.213,0.603,0.449,0.489,0.71c-0.115,0.261-0.351,0.31-0.709,0.146
		c-0.359-0.163-0.669-0.244-0.93-0.244c-0.262,0-0.489,0.049-0.685,0.146c-1.109,0.521-1.663,1.646-1.663,3.375
		c0,0.913,0.13,1.663,0.391,2.25s0.555,1.223,0.881,1.907c0.75,1.696,1.125,3.082,1.125,4.158s-0.343,2.136-1.027,3.18
		S155.604,170.349,154.658,171z M149.326,169.337c0,0.196,0.016,0.408,0.049,0.636c0.261,0.881,0.863,1.321,1.81,1.321
		c0.392,0,0.717-0.065,0.979-0.196c-1.207-0.749-1.858-1.972-1.956-3.668C149.62,168.017,149.326,168.652,149.326,169.337z
		 M152.995,170.658c1.435-1.108,2.152-2.902,2.152-5.381c0-1.011-0.115-2.396-0.343-4.158c-0.229-1.761-0.343-2.95-0.343-3.57
		c0-0.619,0.017-1.043,0.049-1.271c-2.479,4.957-4.011,7.973-4.598,9.049c0.685,0,1.027,0.489,1.027,1.468
		C150.94,168.718,151.625,170.006,152.995,170.658z"/>
</g>
<g>
	<path fill="#FFFFFF" d="M126.852,128.858c1.652,0.326,3.175,0.611,4.579,0.859c-0.503-1.055-1.307-2.793-2.05-4.648
		c-0.816-2.042-1.401-3.849-1.403-4.796c-1.691-1.381-3.339-2.672-4.856-3.782c0.437,1.105,1.158,2.965,2.352,6.095
		C126.94,126.436,127.061,128.122,126.852,128.858z"/>
	<path fill="#FFFFFF" d="M77.002,89.842c0.07,0.086,0.207,0.063,0.307,0.015c0.264-0.125,0.461-0.356,0.636-0.592
		c0.222-0.298,0.93-1.175,0.522-1.571c-0.105-0.103-0.268-0.114-0.415-0.112c-0.115,0.001-0.234,0.006-0.342,0.05
		c-0.224,0.089-0.354,0.32-0.456,0.539c-0.227,0.488-0.41,1.03-0.299,1.558C76.965,89.769,76.976,89.81,77.002,89.842z"/>
	<path fill="#FFFFFF" d="M66.482,80.919c-0.264-0.165-0.605-0.209-0.826,0.036c-0.185,0.205-0.383,0.456-0.295,0.743
		c0.005,0.021,0.039,0.025,0.043,0.001c0.048-0.211,0.139-0.458,0.394-0.456c0.152,0.002,0.345,0.023,0.474,0.103
		c0.417,0.256,0.402,0.753,0.143,1.113c-0.014,0.019,0.013,0.048,0.032,0.034C66.963,82.11,67.079,81.292,66.482,80.919z"/>
	<path fill="#FFFFFF" d="M55.789,73.945c-0.274-0.208-0.753-0.309-0.984,0.018c-0.172,0.242-0.322,0.533-0.266,0.84
		c0.004,0.018,0.03,0.013,0.031-0.004c0.032-0.44,0.358-0.572,0.746-0.506c0.147,0.026,0.276,0.123,0.35,0.251
		c0.094,0.166,0.167,0.673-0.222,0.598c-0.013-0.002-0.025,0.018-0.01,0.024c0.278,0.131,0.576,0.016,0.689-0.277
		C56.256,74.543,56.068,74.158,55.789,73.945z"/>
	<path fill="#FFFFFF" d="M44.589,66.767c-0.327-0.129-0.805-0.118-0.984,0.245c-0.11,0.224-0.116,0.543,0.061,0.729
		c0.026,0.027,0.064-0.007,0.05-0.038c-0.219-0.477,0.361-0.627,0.706-0.511c0.202,0.069,0.363,0.224,0.47,0.404
		c0.142,0.241,0.066,0.458-0.125,0.649c-0.024,0.025-0.001,0.072,0.035,0.062c0.31-0.087,0.451-0.417,0.45-0.72
		C45.249,67.204,44.924,66.899,44.589,66.767z"/>
	<path fill="#FFFFFF" d="M72.738,128.073c-0.188-0.742-0.019-2.425,1.56-6.23c1.284-3.093,2.059-4.932,2.527-6.023
		c-1.548,1.065-3.233,2.309-4.963,3.641c-0.03,0.944-0.667,2.735-1.543,4.752c-0.796,1.834-1.649,3.548-2.184,4.587
		C69.546,128.592,71.077,128.352,72.738,128.073z"/>
	<path fill="#FFFFFF" d="M87.188,123.677c-0.373-0.27-0.617-0.773-0.615-1.638c0.005-3.113,3.503-12.069,4.721-15.093
		c-1.071,0.653-2.112,1.287-3.108,1.893c-1.075,2.752-3.172,7.836-3.564,10.156c0.237-3.012,1.614-7.37,2.296-9.386
		c-2.299,1.397-4.305,2.611-5.84,3.529c-1.092,3.096-4.596,13.037-4.912,14.021c-0.038,0.121-0.083,0.226-0.129,0.328
		c0.48-0.097,0.978-0.212,1.495-0.343l4.644-12.842l-3.23,12.449C81.408,126.021,84.207,124.96,87.188,123.677z"/>
	<path fill="#FFFFFF" d="M158.444,63.929c-1.866,0.022-3.862,0.697-6.104,2.066L127.37,81.24c-0.389,0.236-0.546,0.703-0.41,1.116
		l-8.819,5.385c-0.001,0.001-0.003,0.001-0.004,0.002c-0.028,0.017-0.059,0.037-0.089,0.055l-0.437,0.267l0.001,0.001
		c-2.938,1.805-9.963,6.123-17.387,10.669c-7.288-4.76-14.186-9.279-17.068-11.169l0-0.001l-0.43-0.279
		c-0.028-0.019-0.06-0.04-0.087-0.058c-0.001-0.001-0.002-0.001-0.003-0.002l-8.671-5.646c0.134-0.42-0.019-0.895-0.407-1.147
		L49.083,64.497c-2.2-1.434-4.176-2.166-6.04-2.242c-2.896-0.119-5.365,1.359-7.34,4.393c-0.895,1.373-1.069,2.784-0.837,4.105
		c0.416,2.351,2.128,4.415,3.39,5.467l0.241,0.2l0.304-0.076c0.026-0.007,2.736-0.653,5.821,0.911
		c1.999,1.014,4.006,2.341,5.946,3.624c1.271,0.84,2.472,1.633,3.647,2.328c1.898,1.122,4.431,2.213,6.465,3.09
		c1.161,0.501,2.164,0.935,2.682,1.218c0.958,0.525,2.816,1.785,3.905,2.535c0.3,0.207,0.669,0.228,0.979,0.091
		c1.008,1.091,3.506,4.606,0.509,10.238l-0.267,0.501l3.75,2.427c1.727,1.142,5.343,3.512,9.973,6.405
		c-1.505,0.908-2.778,1.671-3.728,2.232c-8.238,4.875-24.332,19.206-24.494,19.351l-1.11,0.991l1.487,0.088
		c0.241,0.014,6.099,0.316,21.646-2.49c5.95-1.074,14.971-5.1,23.902-9.699c8.795,4.857,17.695,9.142,23.611,10.388
		c15.461,3.257,21.324,3.125,21.566,3.118l1.488-0.045l-1.081-1.023c-0.157-0.148-15.83-14.941-23.923-20.052
		c-0.934-0.589-2.183-1.389-3.661-2.341c4.713-2.757,8.396-5.021,10.155-6.113l3.818-2.316l-0.252-0.509
		c-2.819-5.691-0.257-9.128,0.792-10.206c0.293,0.148,0.653,0.145,0.95-0.048c1.103-0.715,3.036-1.945,4.021-2.449
		c0.526-0.269,1.541-0.672,2.716-1.14c2.059-0.818,4.623-1.836,6.553-2.902c1.195-0.661,2.417-1.419,3.712-2.222
		c1.978-1.226,4.022-2.494,6.048-3.45c3.13-1.474,5.821-0.75,5.848-0.742l0.302,0.085l0.246-0.193
		c1.292-1.015,3.064-3.029,3.547-5.366c0.271-1.313,0.137-2.729-0.716-4.127C163.767,65.443,161.342,63.894,158.444,63.929z
		 M155.705,66.297c-1.406,0.584-2.658,1.472-3.966,2.298l-7.843,4.889c-2.646,1.579-5.273,3.189-7.936,4.743
		c-2.661,1.554-5.327,3.098-8.038,4.573c2.551-1.735,5.143-3.402,7.742-5.058c2.598-1.658,5.23-3.259,7.845-4.891l7.934-4.743
		c1.33-0.759,2.647-1.615,4.126-2.148c1.46-0.529,3.068-0.797,4.587-0.47C158.616,65.332,157.087,65.671,155.705,66.297z
		 M157.572,70.268c-0.597,0.365-1.375,0.176-1.739-0.42s-0.176-1.375,0.42-1.739c0.597-0.364,1.375-0.176,1.739,0.421
		C158.356,69.125,158.168,69.904,157.572,70.268z M146.508,77.023c-0.598,0.364-1.376,0.176-1.739-0.42
		c-0.365-0.597-0.177-1.375,0.421-1.74c0.596-0.365,1.374-0.175,1.738,0.42C147.292,75.88,147.104,76.659,146.508,77.023z
		 M135.442,83.778c-0.596,0.364-1.375,0.176-1.74-0.421c-0.363-0.596-0.175-1.375,0.422-1.739c0.596-0.363,1.375-0.176,1.739,0.42
		S136.041,83.414,135.442,83.778z M130.283,101.328c-0.091-0.205-2.637-4.101-1.448-7.925c0.854-2.742,1.757-3.489,1.757-3.489
		l-2.056-3.353c0,0,0.931,2.93-1.45,5.06c-1.798,1.61-3.482,0.12-3.482,0.12l2.884,6.112l-5.799-9.498
		c-0.111-0.183-0.255-0.335-0.416-0.467l7.308-4.462l0.187,0.306l-6.486,4.024l6.963-3.242l3.418,5.596
		c-0.654,0.653-1.889,2.138-2.357,4.407C128.934,96.308,129.04,98.586,130.283,101.328z M123.781,129.365
		c-5.643-1.188-14.095-5.22-22.551-9.86c3.446-1.797,6.855-3.662,10.046-5.459c1.039,3.272,1.967,6.696,1.922,8.379
		c-0.023,0.864-0.282,1.361-0.664,1.619c2.943,1.369,5.712,2.513,8.152,3.314l-2.869-12.537l4.271,12.971
		c0.513,0.146,1.007,0.275,1.483,0.386c-0.042-0.104-0.085-0.209-0.119-0.332c-0.287-0.992-3.501-11.031-4.503-14.157
		c-0.94-0.601-2.058-1.318-3.313-2.131c0.364-0.21,0.726-0.42,1.082-0.627c1.712,1.104,3.154,2.027,4.197,2.688
		c6.695,4.229,18.718,15.236,22.536,18.787C140.789,132.249,134.646,131.652,123.781,129.365z M75.793,128.669
		c-10.926,1.971-17.085,2.39-19.75,2.468c3.919-3.438,16.257-14.093,23.071-18.125c7.415-4.385,34.348-20.94,39.673-24.215
		c0.14-0.086,0.305-0.113,0.465-0.075c0.159,0.04,0.295,0.138,0.382,0.277l0.257,0.42c-1.952,1.2-5.79,3.56-10.389,6.383
		l-2.8,18.109c0.978-0.538,1.94-1.075,2.888-1.608l2.183-16.092l0.116,14.792c6.608-3.766,12.078-7.107,14.586-8.661l-5.841-11.704
		l7.049,11.546c0.177,0.287,0.086,0.663-0.199,0.841C121.305,106.865,89.774,126.146,75.793,128.669z M71.283,93.677
		c-0.403-2.282-1.594-3.802-2.228-4.474l3.577-5.495l6.866,3.442l-6.366-4.211l0.195-0.3l7.175,4.672
		c-0.165,0.127-0.312,0.276-0.429,0.455l-6.072,9.326l3.058-6.026c0,0-1.726,1.441-3.476-0.22c-2.317-2.199-1.303-5.1-1.303-5.1
		l-2.151,3.292c0,0,0.881,0.773,1.653,3.538c1.078,3.856-1.58,7.677-1.677,7.879C71.429,97.75,71.601,95.476,71.283,93.677z
		 M65.101,77.2c-2.616-1.631-5.194-3.316-7.794-4.972l-7.699-5.115c-1.283-0.863-2.508-1.787-3.896-2.412
		c-1.363-0.666-2.883-1.049-4.427-0.936c1.527-0.283,3.127,0.032,4.571,0.603c1.463,0.576,2.754,1.469,4.063,2.267l7.792,4.972
		c2.565,1.708,5.151,3.384,7.7,5.117c2.55,1.73,5.092,3.472,7.591,5.281C70.337,80.451,67.716,78.831,65.101,77.2z M67.209,82.392
		c-0.381,0.586-1.166,0.751-1.751,0.371c-0.585-0.381-0.75-1.165-0.37-1.751c0.381-0.586,1.166-0.75,1.751-0.37
		C67.425,81.023,67.59,81.808,67.209,82.392z M56.345,75.32c-0.381,0.585-1.165,0.751-1.75,0.37
		c-0.586-0.382-0.752-1.166-0.37-1.751c0.381-0.585,1.164-0.752,1.75-0.37C56.561,73.95,56.727,74.734,56.345,75.32z M45.48,68.246
		c-0.38,0.586-1.166,0.752-1.75,0.37c-0.585-0.381-0.75-1.165-0.37-1.75c0.381-0.586,1.165-0.751,1.75-0.37
		C45.696,66.876,45.862,67.66,45.48,68.246z M96.238,101.175l-0.091-2.326l-2.061-1.347l0.699,4.56
		c-0.917,0.563-1.826,1.118-2.721,1.663l-1.023-8.191c-4.516-2.955-8.284-5.425-10.199-6.681l0.269-0.412
		c0.09-0.138,0.229-0.232,0.389-0.267c0.161-0.034,0.325-0.002,0.462,0.088c2.441,1.601,9.512,6.235,17.096,11.187
		C98.119,100.025,97.177,100.602,96.238,101.175z M72.856,102.233c-0.279-0.186-0.358-0.565-0.174-0.847l7.381-11.337l-6.179,11.529
		c1.97,1.299,5.8,3.8,10.579,6.771c-0.365,0.221-0.72,0.437-1.066,0.646C78.472,105.926,74.616,103.398,72.856,102.233z
		 M120.361,101.766c0.883-0.922,0.736-2.93,0.453-4.109c-0.144-0.598-0.521-1.108-0.79-1.663c-0.235-0.482-0.585-1.563,0.114-1.837
		c0.859-0.337,1.375,0.922,1.593,1.493c0.463,1.205,1.039,2.366,1.72,3.463c0.315,0.511,0.659,1.017,0.847,1.587
		c0.188,0.572,0.199,1.236-0.125,1.742c-0.466,0.72-1.417,0.896-2.24,1.138c-1.177,0.346-2.355,1.112-3.326,2.024
		c-0.567,0.535-1.548,0.061-1.406-0.708C117.382,103.91,119.059,103.13,120.361,101.766z M118.427,92.552
		c0.007-0.458,0.381-0.822,0.838-0.815s0.823,0.382,0.817,0.839c-0.007,0.457-0.385,0.822-0.842,0.815
		C118.784,93.384,118.42,93.008,118.427,92.552z M38.797,74.168c0.076-0.439,0.168-0.868,0.308-1.309
		c-0.526-0.522-0.97-1.128-1.272-1.809c-0.336-0.757-0.441-1.618-0.3-2.421c0.136-0.806,0.49-1.551,0.96-2.184
		c0.449-0.655,1.02-1.2,1.596-1.726c-0.533,0.57-1.055,1.156-1.44,1.828c-0.409,0.65-0.684,1.386-0.748,2.129
		c-0.068,0.743,0.085,1.488,0.435,2.134c0.328,0.604,0.79,1.134,1.321,1.571c2.831-0.208,5.672,0.574,8.018,2.054
		c2.43,1.426,4.655,3.118,6.964,4.654c2.284,1.564,4.795,2.745,7.328,3.908l1.898,0.882c0.628,0.29,1.275,0.643,1.825,1.089
		c1.1,0.883,2.098,1.865,2.988,2.947c-1.079-0.889-2.108-1.827-3.213-2.65c-1.073-0.828-2.426-1.264-3.684-1.854
		c-2.546-1.115-5.131-2.254-7.474-3.816c-2.348-1.52-4.6-3.164-6.99-4.543c-1.196-0.699-2.41-1.287-3.733-1.6
		c-1.25-0.308-2.579-0.428-3.839-0.334c-0.217,0.356-0.418,0.752-0.589,1.152c-0.2,0.474-0.369,0.967-0.503,1.474
		C38.662,75.22,38.711,74.692,38.797,74.168z M161.983,76.053c-0.16-0.405-0.35-0.806-0.557-1.168
		c-1.257-0.13-2.589-0.048-3.848,0.223c-1.186,0.246-2.29,0.715-3.375,1.284l2.371,1.253l-3.285-0.754
		c-2.241,1.25-4.387,2.699-6.608,4.047c-2.386,1.494-5.001,2.558-7.58,3.598c-1.273,0.553-2.64,0.95-3.735,1.746
		c-1.129,0.791-2.186,1.699-3.288,2.556c0.92-1.056,1.947-2.008,3.07-2.859c0.563-0.43,1.22-0.764,1.856-1.035l1.922-0.828
		c2.565-1.089,5.11-2.196,7.438-3.693c2.083-1.3,4.112-2.715,6.262-3.964c-0.104-0.304-0.201-0.605-0.295-0.91
		c-0.116-0.379-0.226-0.762-0.325-1.146c-0.103-0.382-0.192-0.771-0.266-1.16c-0.072-0.389-0.135-0.786-0.126-1.179
		c0.094,0.38,0.253,0.735,0.42,1.083c0.169,0.349,0.351,0.689,0.544,1.023c0.192,0.336,0.392,0.668,0.598,0.995
		c0.15,0.24,0.308,0.477,0.463,0.711c2.353-1.345,5.142-2.008,7.896-1.725c0.542-0.421,1.02-0.938,1.365-1.532
		c0.367-0.636,0.544-1.376,0.496-2.121c-0.043-0.745-0.295-1.488-0.686-2.15c-0.365-0.683-0.869-1.283-1.386-1.869
		c0.56,0.542,1.115,1.104,1.545,1.771c0.45,0.647,0.784,1.401,0.896,2.211c0.117,0.807-0.014,1.664-0.371,2.411
		c-0.321,0.672-0.782,1.264-1.323,1.771c0.126,0.444,0.207,0.875,0.269,1.316c0.07,0.527,0.104,1.055,0.102,1.58
		C162.322,77.03,162.17,76.532,161.983,76.053z"/>
	<path fill="#FFFFFF" d="M123.054,88.29c-0.107-0.046-0.226-0.055-0.34-0.06c-0.147-0.006-0.311,0-0.418,0.1
		c-0.42,0.384,0.264,1.281,0.476,1.585c0.168,0.24,0.358,0.478,0.618,0.61c0.1,0.05,0.235,0.078,0.308-0.006
		c0.027-0.031,0.041-0.072,0.05-0.112c0.125-0.524-0.041-1.071-0.254-1.565C123.398,88.62,123.274,88.385,123.054,88.29z"/>
	<polygon fill="#FFFFFF" points="103.187,115.219 106.398,97.681 104.301,98.967 	"/>
	<path fill="#FFFFFF" d="M90.641,112.997c-0.623,1.733-2.874,7.951-2.129,10.174l1.633-0.771
		C90.145,122.399,88.699,120.387,90.641,112.997z"/>
	<path fill="#FFFFFF" d="M67.91,123.729c0.653,0.229-0.038,3.213-0.404,4.944c1.282-3.076,2.175-7.51,1.803-7.215
		c-0.372,0.297-3.564,2.887-3.564,2.887S67.421,123.557,67.91,123.729z"/>
	<path fill="#FFFFFF" d="M94.633,105.052c-0.324,0.217-1.514,1.035-0.491,1.083c0.553,0.026,1.114-0.893,1.779-1.059
		c0.574-0.145,1.194-0.202,1.677-0.544c0.391-0.276,0.64-0.705,0.917-1.096c0.448-0.632,0.996-1.428,1.617-1.893
		C98.307,102.63,96.401,103.875,94.633,105.052z"/>
	<path fill="#FFFFFF" d="M134.474,81.905c-0.608,0.356-0.517,1.177-0.012,1.574c0.019,0.015,0.047-0.014,0.033-0.033
		c-0.249-0.368-0.248-0.865,0.174-1.108c0.132-0.076,0.326-0.092,0.478-0.089c0.256,0.004,0.338,0.254,0.382,0.467
		c0.003,0.024,0.036,0.021,0.044,0c0.095-0.285-0.096-0.541-0.275-0.751C135.084,81.713,134.741,81.748,134.474,81.905z"/>
	<path fill="#FFFFFF" d="M145.364,75.245c-0.286,0.205-0.484,0.584-0.361,0.935c0.105,0.295,0.399,0.419,0.682,0.297
		c0.014-0.006,0.003-0.026-0.01-0.024c-0.392,0.064-0.304-0.441-0.205-0.604c0.078-0.126,0.209-0.219,0.357-0.241
		c0.39-0.056,0.712,0.086,0.731,0.527c0.001,0.017,0.025,0.023,0.03,0.005c0.064-0.306-0.076-0.601-0.242-0.848
		C146.124,74.958,145.644,75.044,145.364,75.245z"/>
	<path fill="#FFFFFF" d="M156.768,68.395c-0.34,0.123-0.673,0.417-0.686,0.8c-0.011,0.303,0.121,0.636,0.429,0.732
		c0.036,0.011,0.061-0.034,0.037-0.061c-0.187-0.196-0.255-0.416-0.105-0.652c0.111-0.178,0.276-0.328,0.479-0.391
		c0.35-0.107,0.925,0.061,0.691,0.531c-0.016,0.03,0.023,0.065,0.049,0.039c0.184-0.181,0.187-0.5,0.083-0.727
		C157.575,68.3,157.099,68.275,156.768,68.395z"/>
</g>
<g>
	<path d="M154.957-12.42v-5.001h-2.436v5.001h-1.043v-5.001h-0.816v-0.803h0.816v-0.192c0-0.816,0.191-1.523,0.646-1.979
		c0.336-0.336,0.816-0.54,1.465-0.54c0.334,0,0.646,0.108,0.826,0.204l-0.215,0.78c-0.156-0.072-0.385-0.144-0.625-0.144
		c-0.826,0-1.055,0.708-1.055,1.619v0.252h2.436V-18.5c0-0.815,0.191-1.559,0.684-2.027c0.395-0.384,0.922-0.54,1.402-0.54
		c0.385,0,0.695,0.084,0.9,0.168l-0.133,0.816c-0.168-0.072-0.371-0.132-0.684-0.132c-0.887,0-1.127,0.792-1.127,1.679v0.312h1.402
		v0.803h-1.391v5.001H154.957z"/>
	<path d="M163.092-20.216v0.696l-3.395,7.1h-1.092l3.383-6.896v-0.024h-3.814v-0.875H163.092z"/>
	<path d="M164.09-14.399c0-0.983,0.588-1.679,1.547-2.087l-0.012-0.036c-0.863-0.408-1.236-1.08-1.236-1.751
		c0-1.235,1.045-2.075,2.412-2.075c1.51,0,2.266,0.948,2.266,1.919c0,0.66-0.322,1.367-1.283,1.823v0.036
		c0.973,0.384,1.572,1.067,1.572,2.015c0,1.355-1.164,2.267-2.65,2.267C165.072-12.288,164.09-13.259,164.09-14.399z
		 M168.287-14.447c0-0.948-0.66-1.403-1.715-1.703c-0.912,0.264-1.402,0.864-1.402,1.607c-0.037,0.792,0.563,1.487,1.559,1.487
		C167.676-13.056,168.287-13.643,168.287-14.447z M165.385-18.345c0,0.78,0.588,1.199,1.488,1.439
		c0.67-0.228,1.186-0.708,1.186-1.416c0-0.624-0.371-1.271-1.318-1.271C165.865-19.592,165.385-19.016,165.385-18.345z"/>
	<path d="M173.604-12.42v-2.123h-3.621v-0.695l3.479-4.978h1.139v4.846h1.092v0.827H174.6v2.123H173.604z M173.604-15.37v-2.603
		c0-0.408,0.012-0.816,0.037-1.224h-0.037c-0.238,0.456-0.432,0.792-0.646,1.151l-1.908,2.65v0.024H173.604z"/>
	<path d="M177.42-15.13c0.025,1.427,0.936,2.015,1.992,2.015c0.756,0,1.211-0.132,1.607-0.3l0.18,0.756
		c-0.373,0.168-1.008,0.36-1.932,0.36c-1.787,0-2.854-1.176-2.854-2.927s1.031-3.13,2.723-3.13c1.895,0,2.398,1.667,2.398,2.734
		c0,0.216-0.025,0.384-0.037,0.492H177.42z M180.516-15.886c0.012-0.671-0.277-1.715-1.463-1.715c-1.068,0-1.535,0.983-1.619,1.715
		H180.516z"/>
</g>
<g>
	<path d="M154.956,0.452V-4.55h-2.435v5.001h-1.044V-4.55h-0.815v-0.803h0.815v-0.192c0-0.816,0.192-1.523,0.647-1.979
		c0.336-0.336,0.815-0.54,1.464-0.54c0.335,0,0.647,0.108,0.827,0.204L154.2-7.08c-0.156-0.072-0.384-0.144-0.624-0.144
		c-0.827,0-1.055,0.708-1.055,1.619v0.252h2.435v-0.276c0-0.815,0.191-1.559,0.684-2.027c0.396-0.384,0.923-0.54,1.403-0.54
		c0.384,0,0.695,0.084,0.899,0.168l-0.132,0.816c-0.168-0.072-0.372-0.132-0.684-0.132c-0.888,0-1.128,0.792-1.128,1.679v0.312
		h1.403v0.803h-1.392v5.001H154.956z"/>
	<path d="M162.684-6.457h-2.975l-0.3,2.003c0.18-0.024,0.348-0.048,0.636-0.048c0.6,0,1.199,0.132,1.679,0.419
		c0.612,0.348,1.115,1.02,1.115,2.003c0,1.523-1.211,2.663-2.902,2.663c-0.852,0-1.57-0.24-1.942-0.479l0.264-0.804
		c0.324,0.192,0.959,0.432,1.667,0.432c0.995,0,1.847-0.647,1.847-1.691c-0.012-1.007-0.684-1.727-2.242-1.727
		c-0.444,0-0.792,0.048-1.08,0.084l0.504-3.742h3.73V-6.457z"/>
	<path d="M169.246-7.344v0.696l-3.394,7.1h-1.092l3.382-6.896v-0.024h-3.813v-0.875H169.246z"/>
	<path d="M170.342,0.452v-0.647L171.169-1c1.991-1.895,2.891-2.902,2.902-4.078c0-0.792-0.384-1.523-1.547-1.523
		c-0.708,0-1.296,0.36-1.655,0.66l-0.336-0.744c0.54-0.456,1.308-0.792,2.207-0.792c1.679,0,2.387,1.151,2.387,2.267
		c0,1.439-1.044,2.603-2.687,4.186l-0.624,0.576v0.024h3.502v0.875H170.342z"/>
	<path d="M176.497,0.452v-0.647L177.324-1c1.991-1.895,2.891-2.902,2.902-4.078c0-0.792-0.384-1.523-1.547-1.523
		c-0.708,0-1.296,0.36-1.655,0.66l-0.336-0.744c0.54-0.456,1.308-0.792,2.207-0.792c1.679,0,2.387,1.151,2.387,2.267
		c0,1.439-1.044,2.603-2.687,4.186l-0.624,0.576v0.024h3.502v0.875H176.497z"/>
</g>
<g>
	<path d="M151.321,9.928c0.024-0.396,0.049-0.983,0.049-1.499V1.413h1.043v3.646h0.024c0.371-0.648,1.043-1.067,1.979-1.067
		c1.439,0,2.459,1.199,2.446,2.962c0,2.075-1.307,3.106-2.603,3.106c-0.839,0-1.511-0.324-1.942-1.091h-0.036l-0.048,0.959H151.321z
		 M152.413,7.601c0,0.132,0.024,0.264,0.048,0.384c0.204,0.731,0.815,1.235,1.583,1.235c1.104,0,1.764-0.899,1.764-2.231
		c0-1.163-0.6-2.159-1.728-2.159c-0.72,0-1.392,0.492-1.607,1.295c-0.023,0.12-0.06,0.264-0.06,0.432V7.601z"/>
	<path d="M157.862,9.928V9.28l0.827-0.804c1.991-1.895,2.891-2.902,2.902-4.078c0-0.792-0.384-1.523-1.547-1.523
		c-0.708,0-1.296,0.36-1.655,0.66l-0.336-0.744C158.594,2.336,159.361,2,160.261,2c1.679,0,2.387,1.151,2.387,2.267
		c0,1.439-1.044,2.603-2.687,4.186l-0.624,0.576v0.024h3.502v0.875H157.862z"/>
	<path d="M164.27,8.716c0.3,0.192,0.995,0.492,1.727,0.492c1.355,0,1.775-0.863,1.763-1.511c-0.012-1.091-0.995-1.559-2.015-1.559
		h-0.588V5.346h0.588c0.768,0,1.739-0.396,1.739-1.319c0-0.624-0.396-1.175-1.367-1.175c-0.624,0-1.224,0.276-1.56,0.516
		L164.281,2.6c0.407-0.3,1.199-0.6,2.039-0.6c1.535,0,2.23,0.912,2.23,1.859c0,0.804-0.479,1.487-1.439,1.835v0.024
		c0.96,0.192,1.739,0.911,1.739,2.002c0,1.248-0.972,2.339-2.843,2.339c-0.875,0-1.643-0.276-2.026-0.528L164.27,8.716z"/>
	<path d="M174.647,9.712c-0.276,0.144-0.888,0.336-1.668,0.336c-1.751,0-2.89-1.188-2.89-2.962c0-1.787,1.223-3.083,3.118-3.083
		c0.623,0,1.175,0.156,1.463,0.3l-0.239,0.815c-0.252-0.144-0.648-0.275-1.224-0.275c-1.331,0-2.051,0.983-2.051,2.194
		c0,1.343,0.863,2.171,2.015,2.171c0.6,0,0.995-0.156,1.295-0.288L174.647,9.712z"/>
	<path d="M177.84,3.115h-0.023l-1.355,0.732l-0.204-0.804l1.703-0.912h0.899v7.796h-1.02V3.115z"/>
	<path d="M186.766,2.132v0.696l-3.394,7.1h-1.092l3.382-6.896V3.007h-3.813V2.132H186.766z"/>
</g>
</svg>
